<?xml version="1.0" encoding="utf-8"?>
<!-- Generator: Adobe Illustrator 19.2.1, SVG Export Plug-In . SVG Version: 6.00 Build 0)  -->
<svg version="1.1" id="layer" xmlns="http://www.w3.org/2000/svg" xmlns:xlink="http://www.w3.org/1999/xlink" x="0px" y="0px"
	 viewBox="0 0 652 652" style="enable-background:new 0 0 652 652;" xml:space="preserve">
<style type="text/css">
	.st0{fill-rule:evenodd;clip-rule:evenodd;fill:#FFFFFF;}
	.st1{fill-rule:evenodd;clip-rule:evenodd;fill:#0F3280;}
</style>
<path class="st0" d="M479,198.1c8.2-12.3,19.5-20.1,33.6-23.5l0.7-0.2l0.6,0c32.8-1.4,65.5-2.8,98.3-4.2l8.5-0.4l-1.7,8.5
	c-12.3,62.7-24.6,125.4-37,188c-6.4,31.4-11.4,63.3-17.8,94.7v0.3c-0.9,3.6-2.3,8.5-1.1,12.1l2.9,1.5H245l17.2-4.8
	c15.5-11.3,29-24.7,39.9-40.7l0.2-0.3C361.2,352.1,420.1,275.1,479,198.1"/>
<path class="st1" d="M616.2,175.2c0,0-75.4,4.1-98.1,5.1c-18.9,2.4-29.7,16.8-29.7,16.8L303.1,435.8c-29.1,32.2-40.6,36.1-40.6,36.1
	H558L616.2,175.2"/>
<path class="st0" d="M470,275.4l-35.7,3.7c0,0,1,3.6,0.6,7.7c-3.7-3.4-7.9-5-9.5-5.4l-44.9,57.8l6.3,47.5l2.4,11.5
	c0,0,4.2,20.1,22.7,22.4c28.1,0.7,33.9-13.7,33.9-13.7s0.5,6,0.5,9.7c0,1.7-2.1,11.1-15.5,13.4c-13.4,2.3-32.7-4-32.7-4L388,448
	c0,0,33,13.4,72.7,0.7c28.2-8.1,23.3-36.6,23.3-36.6L470,275.4 M436.4,392c-10.6,1.6-10.7-9.5-10.7-9.5l-6.9-66.4c0,0-0.5-8,5.9-9.4
	c6.4-1.4,9.7,0.9,11.1,6.5c1.4,6.2,7.2,67.7,7.2,67.7S445,391.2,436.4,392 M557,405.6c0-0.9-0.2-1.5-0.5-1.7
	c-0.3-0.3-0.7-0.4-1.4-0.3l0.5,6.1c0.6-0.1,1-0.3,1.3-0.5c0.2-0.2,0.3-1,0.2-2.2L557,405.6z M578.1,295.2c0,0-2.4-13.1-13.4-21.5
	c-5.8-5.7-29.9-10.7-57.6-1.3c-27.8,9.4-22,43.9-22,43.9s5.1,59.4,7.6,74.8c4,16.4,8.6,37.2,38.8,37.2c22.8,0,31.4-3.5,34.1-5.2
	l18.1-92.1L578.1,295.2z M534,425.2l-0.5-4.1l-2.2,0.2v4.2l-5,0.4l1.2-23.3l6.1-0.5l5.6,22.6L534,425.2z M542.3,424.7l-2-23l5-0.5
	l2,23L542.3,424.7z M542.8,399.1c-10.6,1.6-10.6-9.5-10.6-9.5l-8.6-83.9c0,0-0.4-8,5.9-9.3c6.4-1.3,9.8,0.8,11.2,6.6
	c1.4,6.3,8.9,85,8.9,85S551.4,398.2,542.8,399.1 M559,422.9l-0.8-6.6c0-1.2-0.2-2-0.4-2.2c-0.3-0.3-0.7-0.4-1.5-0.3l1,9.3l-5.5,0.5
	l-2.3-23l3.9-0.3c2.6-0.2,4.3-0.3,5.3-0.1c1,0.1,1.8,0.6,2.5,1.4c0.6,0.9,0.7,2.3,0.9,4.3c0.1,1.7,0.1,3-0.2,3.6
	c-0.4,0.7-0.8,1.1-1.9,1.3c1.1,0.2,1.9,0.5,2.3,1c0.4,0.4,0.7,0.9,0.8,1.3c0.2,0.4,0.4,1.5,0.5,3.3l0.6,6.1L559,422.9z M531.3,417
	l1.5-0.1c0,0-0.6-3.6-1.1-6.2C531.5,413.7,531.3,417,531.3,417"/>
<path class="st1" d="M20.7,428.1v-58h23.1v8.4H29.5v15.3h10.3v8.3H29.5v26H20.7 M48,428.1v-58h8.9v49.6h13.9v8.4H48z M65.7,370.1h9
	l5.8,23.2H81l5.5-23.2h9.1l-10.4,34v24h-9v-23L65.7,370.1z M113.2,413.4l8.5-1.3c0.2,2.9,0.8,5.1,1.7,6.5c1,1.4,2.4,2.2,4.3,2.2
	c1.6,0,3-0.6,3.9-1.6c1-1,1.6-2.4,1.6-4c0-3.1-2.5-7-7.2-11.8l-0.9-0.8c-4.7-4.7-7.7-8.3-9.1-10.8c-1.3-2.5-2-5.2-2-8
	c0-4.1,1.3-7.5,4-10.3c2.8-2.8,6-4.2,9.9-4.2c3.7,0,6.8,1.3,9.2,3.9c2.5,2.5,3.8,6.1,4.2,10.5l-8.8,1.2c-0.2-2.6-0.6-4.4-1.4-5.5
	c-0.7-1.1-1.9-1.7-3.4-1.7c-1.5,0-2.6,0.5-3.5,1.5c-0.9,1-1.4,2.3-1.4,3.9c0,3.3,2.9,7.7,8.5,13.1l0.6,0.6c4,4,6.8,7.3,8.1,9.8
	c1.3,2.5,1.9,5.4,1.9,8.6c0,4.2-1.3,7.7-4,10.4c-2.7,2.7-5.9,4-9.9,4c-4.5,0-7.9-1.5-10.6-4.2C114.9,422.3,113.5,418.4,113.2,413.4
	 M148.2,428.1v-58h11.9l5.8,32.1c0.2,1.3,0.4,2.7,0.6,4.1c0,1.4,0.1,3,0.1,4.6c0-1.4,0.1-2.7,0.1-4.1c0.2-1.4,0.4-2.9,0.7-4.5
	l5.6-32.2h12v58h-8.3v-36.6c0-1,0.1-2.5,0.2-4.2c0.2-1.8,0.2-3.7,0.5-5.9c-0.1,0.8-0.3,1.8-0.5,3.2c-0.4,2.6-0.7,4.3-0.8,5
	l-7.3,38.5h-4.5l-6.9-38.5c-0.3-1.6-0.5-3.3-0.9-5.1c-0.3-1.8-0.5-2.8-0.5-3c0.1,1.9,0.3,3.8,0.4,5.5c0.1,1.7,0.2,3.3,0.2,4.6v36.6
	H148.2z M190.1,428.1l9.5-58h11.6l9.6,58h-9.2l-1.8-12.6h-9l-1.9,12.6H190.1z M201.9,407.3h6.8l-3-24.2h-0.6L201.9,407.3z
	 M234.7,378.5v16.8h3.6c2,0,3.5-0.6,4.2-1.9c0.8-1.2,1.2-3.6,1.2-6.9c0-3-0.4-5.1-1.2-6.3c-0.8-1.2-2.3-1.8-4.5-1.8H234.7z
	 M234.7,403.7v24.4h-9v-58h13.2c4.9,0,8.5,1.3,10.7,4c2.1,2.6,3.2,6.9,3.2,12.8c0,3.6-0.4,6.6-1.3,8.8c-0.9,2.2-2.4,4-4.4,5.4
	l6.6,26.9h-9.3l-5.6-24.4H234.7z M255,378.5v-8.4h27.5v8.4h-9.3v49.6h-8.9v-49.6H255z"/>
</svg>
