<?xml version="1.0" encoding="UTF-8"?>
<svg width="84px" height="23px" viewBox="0 0 84 23" version="1.1" xmlns="http://www.w3.org/2000/svg" xmlns:xlink="http://www.w3.org/1999/xlink">
    <!-- Generator: Sketch 56.3 (81716) - https://sketch.com -->
    <title>IndiGo-Blue</title>
    <desc>Created with Sketch.</desc>
    <g id="IndiGo-Blue" stroke="none" stroke-width="1" fill="none" fill-rule="evenodd">
        <path d="M 62.542932 20.222534 C 60.367336 22.074698 57.806401 23 54.865857 23 C 51.710253 23 48.977479 21.891717 46.675866 19.679828 C 44.394041 17.445067 43.251046 14.725822 43.251046 11.533009 C 43.251046 8.339677 44.393521 5.619392 46.675345 3.384631 C 48.976437 1.130636 51.709211 0 54.865336 0 C 56.734225 0 58.375035 0.306701 59.788808 0.927382 C 61.202061 1.524669 62.62729 2.546661 64.066579 3.984518 L 64.184263 4.102 L 61.973257 6.483874 L 61.84672 6.378348 C 60.440758 5.205085 59.36025 4.418578 58.598427 4.007391 C 57.46897 3.413222 56.226516 3.114838 54.865857 3.115358 C 52.516859 3.114838 50.565695 3.936174 49.003515 5.578325 C 47.43769 7.224116 46.655558 9.204678 46.655037 11.533009 C 46.655558 13.838468 47.436648 15.809154 49.003515 17.454424 C 50.565695 19.097616 52.516338 19.917392 54.865336 19.917392 C 57.036767 19.917912 58.86556 19.289954 60.365773 18.039236 C 61.920664 16.745892 62.717896 15.089185 62.760075 13.058719 L 55.101746 13.058719 L 55.101746 9.974551 L 66.197913 9.974031 L 66.198434 12.003978 C 66.197913 15.407323 64.981496 18.15256 62.542932 20.222534 Z M 81.645794 20.687784 C 80.079448 22.186462 78.197021 22.93762 76.008927 22.93762 C 73.842703 22.93762 71.971211 22.185942 70.404865 20.687784 C 68.834874 19.184428 68.050139 17.271443 68.050139 14.961306 C 68.050139 12.674042 68.823939 10.771974 70.37258 9.269138 C 71.938926 7.747587 73.821354 6.985512 76.008927 6.985512 C 78.177233 6.985512 80.047684 7.747067 81.61403 9.268098 C 83.205371 10.770415 84 12.672483 84 14.961826 C 84 17.271443 83.216827 19.183908 81.645794 20.687784 Z M 79.413959 11.337552 C 78.525079 10.409131 77.394581 9.943361 76.008927 9.943361 C 74.602964 9.943361 73.462052 10.409131 72.573171 11.337552 C 71.705641 12.242581 71.265627 13.445474 71.265627 14.961826 C 71.265627 16.456345 71.715534 17.658719 72.604415 18.58714 C 73.494337 19.515561 74.624314 19.980811 76.008927 19.980811 C 77.394581 19.980811 78.524558 19.515561 79.413959 18.58714 C 80.303361 17.658719 80.753269 16.455826 80.753269 14.961826 C 80.753269 13.468867 80.303361 12.265454 79.413959 11.337552 Z M 40.909859 5.389106 C 40.594298 5.74883 40.131372 5.916217 39.553365 5.915698 C 39.010247 5.916217 38.550445 5.740513 38.198434 5.389106 C 37.874542 5.020545 37.709472 4.576088 37.709472 4.074969 C 37.709472 3.57333 37.871418 3.141349 38.197913 2.793061 C 38.531699 2.434897 38.991501 2.265431 39.553886 2.265431 C 40.098566 2.265431 40.546912 2.447892 40.878615 2.823732 C 41.222295 3.16994 41.39778 3.589445 41.39778 4.074969 C 41.39778 4.594802 41.237396 5.037179 40.909859 5.389106 Z M 37.993789 22.623641 L 37.993789 7.300011 L 41.113983 7.300011 L 41.113983 22.623641 L 37.993789 22.623641 Z M 33.66707 20.617607 C 32.223615 22.165668 30.358892 22.93762 28.087482 22.93762 C 25.688494 22.93762 23.738372 22.113165 22.252739 20.457498 C 20.854587 18.890722 20.159417 16.928354 20.159417 14.583388 C 20.159417 12.46455 20.880623 10.668008 22.321474 9.208837 C 23.782113 7.728873 25.527589 6.985512 27.551134 6.985512 C 29.15341 6.985512 30.601551 7.337959 31.889829 8.044932 L 31.979915 8.094836 L 31.979915 11.418646 L 31.709137 11.234625 C 31.197783 10.888417 30.589054 10.588993 29.886593 10.340513 C 29.207565 10.074879 28.585818 9.943361 28.023953 9.943361 C 26.571646 9.943361 25.422402 10.401334 24.556434 11.305843 C 23.688903 12.212431 23.24941 13.413244 23.24941 14.930636 C 23.24941 16.424116 23.697755 17.638445 24.588719 18.58766 C 25.498429 19.515561 26.659649 19.980811 28.086961 19.980811 C 29.423146 19.980811 30.521359 19.477094 31.392535 18.467058 C 32.278812 17.460662 32.73601 15.986417 32.73601 14.01781 L 32.73601 0.377399 L 35.856205 0.377399 L 35.856205 14.521008 C 35.856205 17.010487 35.130833 19.049271 33.66707 20.617607 Z M 15.185955 22.623121 L 15.185955 13.703311 C 15.185955 12.610623 14.841234 11.720149 14.160644 11.021494 C 13.501404 10.302565 12.684384 9.943361 11.702814 9.943361 C 10.765506 9.943361 9.947965 10.299446 9.24238 11.023573 C 8.562831 11.721709 8.220193 12.610623 8.220193 13.703311 L 8.220193 22.623121 L 5.131242 22.623121 L 5.131242 13.703311 C 5.131242 11.734705 5.743616 10.115945 6.976697 8.862109 C 8.211341 7.608272 9.791226 6.985512 11.702814 6.985512 C 13.594614 6.985512 15.173979 7.609312 16.427368 8.861589 C 17.68284 10.114386 18.30615 11.734185 18.306671 13.703311 L 18.30615 22.623121 L 15.185955 22.623121 Z M 0 22.623121 L 0 0.377399 L 3.277454 0.377399 L 3.277975 22.623121 L 0 22.623121 Z" id="Combined-Shape" fill="#001B94"></path>
    </g>
</svg>