<?xml version="1.0" encoding="utf-8"?>
<!-- Generator: Adobe Illustrator 27.0.0, SVG Export Plug-In . SVG Version: 6.00 Build 0)  -->
<svg version="1.1" id="katman_1" xmlns="http://www.w3.org/2000/svg" xmlns:xlink="http://www.w3.org/1999/xlink" x="0px" y="0px"
	 viewBox="0 0 841.89 595.28" style="enable-background:new 0 0 841.89 595.28;" xml:space="preserve">
<style type="text/css">
	.st0{clip-path:url(#SVGID_00000056404148336612172520000006143357985070214545_);}
	.st1{fill:#FBD107;}
	.st2{fill:#FAD700;}
	.st3{fill:#F5A91A;}
	.st4{fill:#F8B81A;}
	.st5{fill:#F6A31A;}
	.st6{fill:#F9B61C;}
	.st7{fill:#F8BF13;}
	.st8{fill:#F6A11C;}
	.st9{fill:#F49822;}
	.st10{fill:#F8BA15;}
	.st11{fill:#F7A51D;}
	.st12{fill:#E52426;}
</style>
<g>
	<defs>
		<rect id="SVGID_1_" x="89.03" y="207.74" width="663.35" height="182.1"/>
	</defs>
	<clipPath id="SVGID_00000178896984227413419920000013744344909527381941_">
		<use xlink:href="#SVGID_1_"  style="overflow:visible;"/>
	</clipPath>
	<g style="clip-path:url(#SVGID_00000178896984227413419920000013744344909527381941_);">
		<path class="st1" d="M263.19,311.39c-5.08,4.91-11.95,6.33-14.81,3.47c-2.86-2.88-1.4-9.95,3.63-14.84
			c5.06-4.85,11.79-6.52,14.7-3.65C269.61,299.25,268.19,306.54,263.19,311.39z"/>
		<path class="st2" d="M283.72,310.72c-3.6,3.96-8.51,5.48-10.9,3.47c-2.35-2.03-1.44-7.31,2.15-11.31
			c3.65-3.94,8.65-5.77,11.02-3.72C288.3,301.2,287.31,306.72,283.72,310.72z"/>
		<path class="st3" d="M198.58,285.52c-6.83-1.48-16.22,0.9-22.65,7.23c-6.74,6.68-11.67,15.78-9.01,23.27
			c1.07,3.09,5.47,6.03,9.01,6.17c6.87,0.3,14.79-2.84,20.23-7.84c5.85-5.32,8.91-13.14,9.05-18.64c-0.01-1.36-0.01-1.97-0.33-3.47
			C204.27,289.05,201.11,286.03,198.58,285.52"/>
		<path class="st4" d="M235.46,312.16c-6.75,6.44-16.73,8.84-20.58,5c-3.85-3.82-1.56-13.36,5.15-19.88
			c6.7-6.52,16.14-8.06,19.99-4.22C243.87,296.83,242.17,305.61,235.46,312.16z"/>
		<path class="st5" d="M223.55,294.86c2.35-1.93,4.88-3.27,7.09-3.47C228.15,292.34,225.74,293.46,223.55,294.86z"/>
		<path class="st1" d="M279.77,280.5c-4.15,5.69-10.86,8.12-14.22,5.81c-3.3-2.3-3.32-9.46,0.79-15.17
			c4.21-5.63,10.96-8.51,14.24-6.21C283.96,267.27,283.96,274.86,279.77,280.5"/>
		<path class="st2" d="M295.82,286.54c-3.34,4.57-8.3,6.72-10.94,4.85c-2.71-1.87-2.31-7.41,1.05-12c3.3-4.53,8.4-7.03,11.04-5.12
			C299.63,276.1,299.2,282.03,295.82,286.54z"/>
		<path class="st6" d="M225.78,262.57c-8.4,10.05-21.21,14.15-26.76,8.94c-6.42-6.15-6.7-15.94,2.72-27.78
			c10.15-12.73,21.37-13.18,27.3-8.43C234.97,240.03,234.14,252.5,225.78,262.57z"/>
		<path class="st7" d="M257.11,272.59c-6.14,10.38-15.66,10.56-19.95,7.21c-4.21-3.43-2.98-13.26,3.04-20.45
			c6-7.21,15.58-10.05,19.48-6.25C262.92,256.32,261.93,264.5,257.11,272.59z"/>
		<path class="st5" d="M199.6,229.51c0.04,1.5-0.09,2.95-0.24,4.43C199.46,232.48,199.6,231,199.6,229.51z"/>
		<path class="st8" d="M189.86,211.36c-21.9-9.2-43.95,20.45-42.19,37.1c1.38,12.87,9.58,18.05,21.04,16.23
			c0.2-0.08,0.38-0.08,0.51-0.12c12.09-1.61,22.24-11.47,26.86-20.13c1.6-3.03,2.71-6.66,3.26-10.4c0.01-0.06,0-0.06,0-0.06
			c0.12-1.5,0.26-2.97,0.26-4.47C199.59,221.74,196.75,214.3,189.86,211.36"/>
		<path class="st9" d="M143.87,277.74c-5,0.85-9.78,2.92-14.1,5.79c-7.05,4.14-12.9,9.61-16.3,16.21
			c-4.19,8.1-3.67,15.39-0.09,20.45c1.62,2.72,3.89,4.39,6.1,5.34c1.21,0.49,2.49,0.89,3.77,1.12h0.04
			c3.81,0.9,8.12,0.83,12.88-0.41c13.93-3.76,29.69-18.85,29.59-33.1C165.7,279.19,155.43,275.29,143.87,277.74"/>
		<path class="st2" d="M279.71,332.69c-3.83,3.7-8.81,4.96-11.06,2.76c-2.17-2.19-0.97-7.35,2.87-11.13
			c3.87-3.7,9.01-5.2,11.24-3.01C284.96,323.49,283.6,328.94,279.71,332.69z"/>
		<path class="st1" d="M255.71,339.78c-5.25,4.59-11.77,5.81-14.52,2.74c-2.69-3.03-0.57-9.2,4.78-13.75
			c5.33-4.53,11.59-5.71,14.34-2.66C262.96,329.12,261.1,335.23,255.71,339.78z"/>
		<path class="st10" d="M223.69,349.55c-7.15,6.07-15.8,7.68-19.44,3.63c-3.63-4.08-0.75-12.29,6.34-18.32
			c7.13-6.09,15.49-7.66,19.1-3.58C233.31,335.3,230.8,343.46,223.69,349.55z"/>
		<path class="st11" d="M184.25,336.06c-14.1-3.98-36.54,13.97-33.28,28.05c0.77,3.19,5.16,6.01,8.65,6.42
			c14.12,1.46,30.02-13.59,30.87-24.25c-0.07-1.24-0.12-2.48-0.18-3.71C189.9,339.36,186.78,336.76,184.25,336.06z"/>
		<path class="st9" d="M146.27,351.74c-2.57-10.68-15.52-9.83-24.22-7.27c-3.24,0.75-6.5,1.97-9.54,3.63h-0.06
			c-4.48,2.19-8.18,4.85-11.57,8.1c-4.15,3.98-11.22,12.92-9.76,21.57c1.5,9.12,12.92,11.78,23.25,9.3
			C126.77,384.21,150.24,368.35,146.27,351.74"/>
		<path class="st12" d="M363.22,277.19c-1.82-5.4-1.66-13.12-10.74-12.95c-8.93,0.22-13.1,6.09-13.1,13.12
			c0,11.37,28.82,13.58,30.99,36.65c1.32,13.75-12.13,36.61-39.17,36.86c-10.96,0-24.61-4.89-24.83-27.94l19.43-4.18
			c0.22,5.77-0.24,16.12,10.86,16.12c8.45,0,12.88-7.98,13.55-14.24c1.6-14.42-30.54-18.56-30.38-36.96
			c0.22-17.22,11.36-35.01,38-34.77c26.43,0.2,22.87,23.76,22.87,23.76L363.22,277.19z"/>
		<path class="st12" d="M403.08,292.02l-10.33,40.86c2.31,3.59,5.28,5.4,8.91,5.34c2.29,0.16,4.56-0.91,6.74-3.37
			c2.19-2.42,4.27-7.23,6.12-14.48l4.05-15.88c1.74-7.21,2.11-12.02,1.17-14.44c-0.99-2.46-2.69-3.58-5.1-3.37
			C411.02,286.6,407.2,288.4,403.08,292.02 M390.36,275.15h15.58l-2.25,9.02h0.26c2.23-2.46,5.28-4.79,9.11-6.96
			c3.83-2.13,7.64-3.33,11.59-3.43c6.58,0,10.65,2.54,12.37,7.62c1.66,5,1.3,12.35-1.24,21.97l-4.54,18.12
			c-2.37,9.57-5.67,16.98-9.89,22.01c-4.23,5.02-9.62,7.56-16.22,7.58c-2.19,0.04-4.42-0.57-6.66-1.85c-2.27-1.26-5-3.37-8.22-6.38
			l-10.49,41.49h-17.01L390.36,275.15z"/>
		<path class="st12" d="M537.72,300.85h-16.87l0.85-3.27c0.69-2.88,0.3-5.06-1.14-6.56c-1.36-1.5-3.63-2.24-6.62-2.24
			c-3.04,0-5.63,0.75-7.76,2.24c-2.21,1.5-3.65,3.68-4.4,6.56l-7.49,29.57c-0.71,2.88-0.32,5.1,1.09,6.58
			c1.42,1.46,3.65,2.21,6.67,2.21c3,0,5.63-0.75,7.78-2.21c2.15-1.48,3.61-3.71,4.38-6.58l1.17-4.63h17.01l-0.09,0.28
			c-2.57,9.79-6.72,16.96-12.52,21.51c-5.85,4.53-13,6.78-21.53,6.68c-8.57,0.1-14.66-2.15-18.17-6.68
			c-3.55-4.55-4.11-11.72-1.66-21.51l5.22-20.86c2.55-9.77,6.75-17,12.54-21.49c5.85-4.55,13.03-6.82,21.57-6.74
			c8.36-0.08,14.3,2.11,17.86,6.46C539.2,284.55,539.85,291.41,537.72,300.85"/>
		<path class="st12" d="M598.26,316.57H561.3l-2.49,9.85c-0.89,3.72-0.57,6.4,0.87,8.12c1.38,1.75,3.55,2.58,6.44,2.58
			c3.58-0.1,6.34-1.06,8.4-3.01c2.09-2.03,3.46-4.43,4.23-7.45h16.97c-2.37,7.8-6.3,13.77-11.93,17.97
			c-5.57,4.29-12.64,6.36-21.19,6.48c-8.2-0.12-14.08-2.42-17.76-7.11c-3.67-4.65-4.5-11.11-2.55-19.37l6.16-24.37
			c2.19-8.24,6.32-14.7,12.33-19.35c6.01-4.67,13.08-7.05,21.33-7.11c7.98,0.08,13.84,2.4,17.6,6.97c3.75,4.57,4.8,10.62,2.96,18.38
			L598.26,316.57z M564.84,302.6h19.95l1.05-4.12c0.83-3.33,0.75-5.93-0.39-7.88c-1.15-1.83-3.44-2.82-6.89-2.84
			c-3.4,0.02-6.18,1.01-8.28,2.84c-2.11,1.95-3.54,4.55-4.36,7.88L564.84,302.6z"/>
		<path class="st12" d="M699.76,316.57h-36.9l-2.49,9.85c-0.85,3.72-0.59,6.4,0.81,8.12c1.38,1.75,3.55,2.58,6.46,2.58
			c3.55-0.1,6.34-1.06,8.45-3.01c2.03-2.03,3.38-4.43,4.11-7.45h17.01c-2.35,7.8-6.32,13.77-11.89,17.97
			c-5.57,4.29-12.6,6.36-21.17,6.48c-8.22-0.12-14.12-2.42-17.78-7.11c-3.69-4.65-4.54-11.11-2.57-19.37l6.16-24.37
			c2.23-8.24,6.32-14.7,12.32-19.35c6.01-4.67,13.11-7.05,21.33-7.11c8.02,0.08,13.89,2.4,17.62,6.97
			c3.75,4.57,4.74,10.62,2.92,18.38L699.76,316.57z M666.42,302.6h19.93l1.05-4.12c0.85-3.33,0.69-5.93-0.48-7.88
			c-1.14-1.83-3.4-2.82-6.79-2.84c-3.42,0.02-6.22,1.01-8.34,2.84c-2.11,1.95-3.54,4.55-4.41,7.88L666.42,302.6z"/>
		<path class="st12" d="M719.04,292.42h-8.83l3.52-13.99h8.85l6.46-25.87h16.99l-6.44,25.87h10.9l-3.52,13.99h-10.96l-9.58,38.12
			c-0.46,1.85-0.09,3.23,1.13,4.14c1.11,0.91,2.84,1.38,5.2,1.38c1.19,0,2.29-0.08,3.4-0.18l-3.65,14.56
			c-3.38,0.47-6.66,0.71-9.91,0.67c-5.57,0.04-9.82-1.08-12.46-3.37c-2.65-2.34-3.38-6.15-2.11-11.45L719.04,292.42z"/>
		<path class="st12" d="M612.56,326.89l12.09-47.9l6.64-26.38h17.01L641.6,279l-20.46,79.38c-2.61,9.73-6.77,16.91-12.56,21.36
			c-5.81,4.57-13.04,6.78-21.53,6.76c-8.59,0.02-14.66-2.19-18.13-6.76c-3.55-4.53-4.13-11.64-1.76-21.49l17.16-0.1l-1.26,4.47
			c-0.61,2.92-0.28,5.06,1.11,6.54c1.42,1.48,3.65,2.29,6.67,2.29c3.02,0,5.59-0.81,7.78-2.29c2.21-1.48,3.61-3.63,4.4-6.54
			l1.52-5.99L612.56,326.89z"/>
		<path class="st12" d="M457.24,275.15h16.95l-18.76,74.59h-16.99L457.24,275.15z"/>
		<path class="st12" d="M476.14,268.22h-17.01l3.91-15.66h16.93L476.14,268.22z"/>
	</g>
</g>
</svg>
