<svg xmlns="http://www.w3.org/2000/svg" height="800" width="1200" version="1.0" viewBox="-61.5 -83.795 533 502.77"><path d="M0 0h410v335.18H0z" fill="#47143d"/><path d="M185.41 237.17c-.14 0-1.64.45-3.33 1-2.22.72-3.21 1.11-3.54 1.41l-.46.41v34.07l.34 1.32c1.18 4.62 3.84 7.55 8.29 9.14 3.05 1.09 6.8 1.49 10.67 1.13 2.2-.2 3.96-.5 6.21-1.06 2.11-.53 2.63-.74 2.77-1.18.11-.35-.74-3.08-1.09-3.48-.32-.37-.58-.33-2.55.33-2.84.96-4.54 1.26-7.06 1.25-1.71-.01-2.42-.08-3.36-.33-2.48-.66-4.13-1.85-5.03-3.64-.87-1.73-.88-1.8-.88-14.37l-.01-11.48h17.54l.43-.44c.42-.41.44-.51.44-1.72 0-1.13-.04-1.32-.36-1.69l-.36-.42-8.84-.04-8.85-.04v-9.43l-.36-.37c-.2-.2-.48-.37-.61-.37zm-37.55 8.26c-3.34.03-6.59.39-9.41 1.1-5.34 1.35-9.13 4.29-10.38 8.07-.32.97-.39 1.5-.4 2.77-.01 1.76.19 2.79.83 4.14 1.43 3.05 4.72 5.09 9.93 6.16 1.97.41 3.56.57 9.12.93 6.08.39 8.2.73 10.17 1.63 1.89.86 2.63 1.94 2.74 4.05.1 1.86-.25 2.71-1.74 4.2-.91.91-1.43 1.28-2.56 1.84-6.32 3.11-16.61 1.96-25.77-2.87-1.54-.82-1.62-.84-2.01-.63-.42.24-1.66 2.31-1.8 3.02-.13.63.19.99 1.44 1.62 3.65 1.84 8.36 3.27 12.8 3.89 3.04.43 2.9.43 7.63.38 3.46-.04 4.74-.11 6.31-.35 6.71-1.04 11.12-3.2 13.35-6.53 1.09-1.63 1.39-2.63 1.48-4.87.05-1.45.01-2.09-.18-2.84-.96-3.68-3.8-6.32-8.37-7.77-2.57-.82-5.86-1.25-13.11-1.73-4.47-.29-5.94-.46-7.33-.84-2.05-.56-3.27-1.37-3.94-2.6-.47-.87-.45-2.95.03-4.16.49-1.25 1.68-2.47 3.13-3.23 2.18-1.13 4.52-1.56 8.41-1.56 5.54.02 10.67 1.15 15.4 3.42 1.1.53 2.11.96 2.25.96.35 0 .78-.49 1.49-1.71s.75-1.61.24-2.09c-.47-.43-3.38-1.68-5.54-2.38-4.25-1.36-9.33-2.05-14.21-2.02zm86.42.52c-1.87 0-3.76.06-4.73.18-3.34.42-7 1.34-9.99 2.51-1.81.71-5.03 2.24-5.37 2.55-.5.45-.34 1.16.73 3.45.4.84.64.8 3.96-.84 7.34-3.63 13.79-4.7 19.79-3.29 4.33 1.02 7.17 3.31 8.27 6.67.27.84.48 6.26.24 6.49-.09.09-.72.01-1.7-.22-7.67-1.81-14.98-2.19-21.28-1.12-8.55 1.45-13.13 5.54-13.12 11.71 0 3.13.88 5.34 2.9 7.35 2.32 2.29 5.41 3.56 10.26 4.19 2.13.28 8.31.19 10.48-.15 4.36-.68 8.55-2.2 11.4-4.14.47-.31.92-.57 1.01-.57.1 0 .16.54.16 1.49 0 2.65.07 2.69 4.26 2.69 3.54 0 3.84-.07 4.12-1.01.12-.39.15-3.99.11-12.3-.06-11.29-.07-11.8-.37-13.02-.64-2.61-1.53-4.46-3.03-6.33-2.59-3.22-7.15-5.29-13.47-6.11-.92-.12-2.77-.18-4.63-.18zm103.62 0c-1.93.01-3.87.1-5.02.26-4.64.63-9.28 2.1-13.77 4.36-1.55.77-1.62 1.04-.81 2.93.59 1.38.87 1.78 1.27 1.78.15 0 1.23-.5 2.41-1.12 7.07-3.67 13.41-4.93 19.5-3.88 4.63.8 7.9 3.1 9.17 6.44.36.95.39 1.24.45 4.08l.07 3.05-.43-.09c-.24-.05-1.18-.26-2.1-.47-2.06-.47-5.4-1.04-7.61-1.3-2.47-.29-8.65-.25-11.18.07-8.56 1.1-13.54 4.4-14.71 9.74-.36 1.66-.24 4.04.3 5.73.45 1.41 1.52 3.12 2.54 4.06 2.23 2.06 5.81 3.46 10.11 3.99 2.22.27 6.87.27 9.18 0 4.98-.58 9.34-2.03 12.58-4.18.56-.38 1.09-.68 1.16-.68.07 0 .12.62.12 1.39 0 .77.08 1.62.17 1.88.29.83.66.91 4.08.91 1.69 0 3.24-.06 3.44-.14.87-.33.84-.02.84-12.33 0-7.19-.06-11.71-.16-12.44-.75-5.45-3.69-9.51-8.42-11.67-2.19-.99-5.24-1.81-8.25-2.19-1.09-.14-3-.2-4.93-.18zm-71.62.79l-.44.44-.45.44.01 18.08c0 19.42-.03 18.56.76 18.99.48.27 6.37.3 6.94.04.8-.37.82-.51.82-6.85v-5.84h9.1l5.74 4.67c9 7.33 9.14 7.44 9.85 7.79.65.32.87.33 5.27.37 4.46.04 4.61.04 4.9-.26.36-.36.39-.86.09-1.3-.13-.18-3.53-2.82-7.56-5.88-4.03-3.05-7.36-5.61-7.4-5.68-.05-.07.41-.17 1-.23 5.62-.54 10.27-3.32 12.24-7.34.79-1.62 1.05-2.67 1.15-4.72.16-3.41-.79-6.12-2.94-8.42-1.48-1.58-4.15-3.07-6.86-3.81l-1.46-.4zm-215.6.01l-.239.36c-.206.31-.023.86-.023.86.116.27 20.811 36.33 21.211 36.6.5.34.54.35 4.582.3l4.083-.04.364-.37c.531-.54 21.037-36.45 21.037-36.84 0-.18-.11-.45-.25-.6-.22-.24-.51-.27-2.611-.27h-2.37l-.431.41c-.237.23-18.206 31.89-18.358 31.73 0 0-17.867-31.86-18.097-31.96zm59.085 0l-.37.37-.37.36v36.55l.44.44.44.43h6.93l.44-.43.43-.44v-36.49l-.39-.4-.39-.39zm164.24 3.96h9.27c8.41 0 9.37.03 10.24.27 2.84.78 4.84 3 5.49 6.09.33 1.56.21 3.72-.31 5.34-.89 2.81-2.75 4.53-5.73 5.3-1.05.27-1.72.29-10.08.29h-8.96zm-40.97 14.81c2.28-.03 4.85.16 7.67.55 2.4.33 6.29 1.12 6.47 1.3.07.07.11 2.17.08 4.68l-.04 4.55-.97.65c-2.07 1.36-4.98 2.72-7.29 3.39-2.64.77-4.38 1-7.75 1.05-1.73.03-3.31.02-3.52-.02-4.81-.87-7.13-2.97-7.63-6.89-.31-2.47.35-4.45 2.03-6.02 2.23-2.09 5.92-3.17 10.95-3.24zm104.26 0c3.17-.02 6.81.36 10.82 1.14 1.26.25 2.46.52 2.66.59l.37.14-.04 4.6-.04 4.61-1.05.71c-1.21.81-3.87 2.16-5.39 2.73-1.61.61-4.24 1.25-6.14 1.5-1.85.24-6.05.27-7.34.06-2.24-.38-4.44-1.46-5.52-2.73-2.01-2.34-2.33-6.6-.67-9.01 1.94-2.82 6.29-4.3 12.34-4.34z" fill="#fff"/><path d="M204.96 50.684l-.6.421c-2.47 1.71-8.46 7.33-11.88 11.143a117.084 117.084 0 00-9.5 12.12c-.75 1.11-1.45 2.06-1.55 2.114-.1.053-1.36-.128-2.8-.402-8.96-1.707-18.72-2.383-26.86-1.857-4.2.272-5.86.514-6.06.884-.24.465-.61 4.303-.74 7.964-.29 7.633.29 15.597 1.72 23.549.3 1.64.58 3.22.62 3.51.08.52.08.53-1.69 1.72-7.07 4.77-14.08 10.77-19.59 16.79-1.69 1.84-4.06 4.73-4.29 5.23-.14.28-.02.49.74 1.5 5.09 6.66 14.48 15.19 22.96 20.85 1.05.7 1.93 1.34 1.97 1.42.03.08-.17 1.33-.44 2.77-1.52 8-2.1 14.85-1.97 23.09.07 4.33.36 8.64.64 9.55.06.18.42.28 1.38.41 8.63 1.14 21.23.55 31.53-1.48 1.24-.25 2.42-.44 2.62-.44.32 0 .59.31 1.65 1.9 2.46 3.69 6.31 8.64 9.49 12.23 4 4.52 11.79 11.75 12.65 11.75.13 0 .81-.45 1.51-1 2.13-1.68 4.43-3.78 7.41-6.81 5.09-5.15 9.42-10.45 13.36-16.33.6-.89 1.19-1.65 1.31-1.7.12-.04 1.29.13 2.6.38 8.19 1.6 17.4 2.33 25.2 1.99 4.56-.2 7.41-.51 7.66-.85.41-.54.81-6.06.81-11.29 0-7.45-.66-14.45-2.02-21.37-.28-1.42-.48-2.67-.44-2.77.04-.1.79-.65 1.67-1.23 5.51-3.62 11.25-8.3 16.33-13.31 4.01-3.95 7.95-8.43 7.95-9.03 0-.5-3.42-4.51-6.64-7.78-4.95-5.04-11.34-10.34-17.26-14.31-1.48-1-1.99-1.41-1.99-1.65 0-.17.21-1.32.45-2.55 1.54-7.823 2.29-17.307 1.95-24.796-.2-4.479-.51-7.573-.81-7.972-.43-.582-7.34-1.045-13.78-.926-6.6.121-11.95.652-18.34 1.823-1.56.288-2.99.525-3.18.524-.25-.001-.59-.393-1.45-1.674-4.48-6.669-10.01-13.23-15.6-18.503-2.09-1.975-5.12-4.557-6.11-5.209zm.02 4.681c.56 0 6.95 6.115 10.09 9.651 4.04 4.546 9.44 11.679 9.32 12.308-.04.178-.66.419-2.29.883-1.24.352-2.35.643-2.48.646-.14.003-.43-.272-.66-.613-.77-1.158-3.7-4.97-5.21-6.78-2.81-3.346-8.19-8.614-8.8-8.614-.33 0-2.67 2.11-5.03 4.531-2.96 3.046-6.65 7.544-8.85 10.77-.59.868-.63.87-3.16.131-2.34-.684-2.4-.707-2.4-.992 0-.278 1.1-1.875 3.38-4.938 4.21-5.636 9.23-11.117 14.2-15.524.91-.802 1.76-1.459 1.89-1.459zm-.03 12.27c.27 0 3.01 2.72 4.91 4.877 2.33 2.636 5.73 7.061 5.73 7.449 0 .126-.3.328-.71.477-1.98.721-6.46 2.53-8.09 3.268-1.02.46-1.89.833-1.95.828-.05-.005-.6-.248-1.22-.538-1.7-.799-5.45-2.346-7.41-3.062-.96-.352-1.78-.731-1.83-.842-.2-.533 4.76-6.713 8.47-10.545 1.02-1.051 1.97-1.912 2.1-1.912zm46.84 10.063c.78 0 1.55.01 2.33.028 4.78.11 6.41.221 6.65.463.26.263.48 4.204.48 8.674-.01 22.077-6.76 43.657-18.99 60.737l-1.27 1.78.32 2.56c.51 4.11.66 7.03.57 11.16-.09 4.17-.33 7-.62 7.31-.33.34-4.07.62-8.61.63-4.42.02-6.87-.12-10.32-.6-1.35-.19-2.1-.23-2.28-.14-.15.08-.88.59-1.62 1.12-2.28 1.64-3.84 2.61-4.21 2.6-.19 0-1.06-.33-1.92-.72-2.23-1.02-3.15-1.5-3.15-1.66 0-.18.03-.2 3.37-2.39 1.48-.97 3.55-2.41 4.6-3.21 1.16-.87 2.05-1.44 2.27-1.44.19 0 1.18.17 2.2.38 4.18.85 9.78 1.29 13.33 1.05 1.26-.09 1.62-.16 1.69-.35.05-.13.13-1.32.18-2.64.13-3.65-.26-8.06-1.1-12.21-.21-1.03-.38-2-.38-2.17 0-.16.73-1.28 1.63-2.47 5.34-7.14 9.92-15.53 12.99-23.79 3.23-8.67 5.18-17.44 5.92-26.559.21-2.624.26-8.784.08-10.886-.1-1.272-.16-1.486-.44-1.641-.46-.256-8.87-.35-11.79-.131-9.47.707-18.77 2.801-28.07 6.317l-.94.355-.63-.364c-.35-.201-1.38-.788-2.29-1.3-1.99-1.127-2.44-1.47-2.24-1.684.23-.23 4.66-1.983 7.44-2.941 11.27-3.875 23.13-5.871 34.82-5.868zm-94.33.037c3.23-.002 6.64.089 8.75.281 14.54 1.323 26.9 4.729 38.95 10.736 4.97 2.478 8.89 4.857 14.47 8.777l.67.472 1.42-.22c4.61-.705 12.17-.952 16.54-.542 2.54.239 2.9.311 3.06.603.45.844.76 9.478.47 13.408-.09 1.32-.31 3.55-.49 4.96l-.31 2.57.89 1.25c1.76 2.46 3.08 4.52 3.07 4.83 0 .17-.49 1.37-1.08 2.67-.8 1.72-1.16 2.35-1.35 2.35-.16 0-.49-.38-.88-1.03-.93-1.58-3.33-5.1-4.79-7.03-.72-.96-1.35-1.82-1.41-1.92-.06-.1.09-1.21.34-2.47.61-3.12.91-5.56 1.05-8.53.12-2.43-.01-6.31-.21-6.52-.06-.06-2.03-.1-4.39-.1-4.68 0-6.36.15-10.55.98-1.22.24-2.26.44-2.33.44-.06 0-1.02-.69-2.12-1.52-16.73-12.585-38.21-19.686-58.2-19.236-2.1.047-4.05.146-4.34.215-.46.112-.53.193-.66.791-.25 1.228-.18 10.264.11 13.163.84 8.377 2.69 16.647 5.34 23.867.42 1.15.87 2.37.99 2.72l.22.62-1.06 1.83c-.59 1.01-1.23 2.16-1.44 2.56-.54 1.07-.82.99-1.41-.44-4.5-10.8-7.19-22.29-8.08-34.51-.2-2.836-.21-11.108 0-13.556.11-1.384.21-1.915.39-2.043.36-.273 4.22-.424 8.37-.426zm1.46 8.754c.6-.003 1.49.014 2.87.047 9.13.215 17.68 1.701 26.57 4.615 2.28.749 2.81 1.006 2.64 1.286-.05.078-.6.496-1.23.93l-1.14.791-1.3-.169c-3.35-.437-5.06-.532-9.67-.538-3.09-.003-5.64.068-6.81.192-2.34.247-5.26.742-5.44.917-.19.197-.5 1.772-.8 4.124-.38 2.966-.38 13.396 0 16.366.36 2.85.37 2.8-.5 4.04-.41.58-.81 1.07-.89 1.07-.08 0-.2-.12-.28-.27-.39-.73-2.06-6.25-2.78-9.19-1.74-7.03-2.55-13.007-2.73-20.101-.09-3.382-.08-3.609.18-3.872.17-.165.32-.233 1.31-.238zm90.25.149c1.72.002 3.1.058 3.17.169.15.252.09 6.112-.09 8.393-.62 7.82-2.04 14.92-4.43 22.28-.44 1.37-.9 2.57-1.01 2.66-.15.12-.27.08-.49-.17-.17-.18-.59-.75-.94-1.25l-.62-.91.33-2.76c.46-3.79.5-12.75.08-16.216-.31-2.528-.6-4.081-.8-4.284-.2-.194-2.28-.538-4.99-.827-3.24-.347-10.69-.34-14.06.014-4.64.484-4.12.519-5.32-.356-.57-.419-1.04-.877-1.04-1.014 0-.187.48-.413 1.88-.889 7.26-2.458 15.29-4.085 23.11-4.681 1.44-.109 3.5-.16 5.22-.159zM195.6 93.97c.51 0 5.21 2.222 5.29 2.502.03.1-.6.603-1.41 1.118-2.48 1.578-4.67 3.08-6.74 4.63-1.17.88-2.11 1.48-2.32 1.48-.19 0-1.35-.2-2.59-.44-3.76-.74-6.17-.97-10.25-.97-2.38 0-3.8.06-4.06.17-.38.16-.4.23-.51 1.79-.24 3.56.2 9.16 1.05 13.34.21 1.02.38 1.99.38 2.15 0 .15-.61 1.11-1.37 2.11-5.72 7.65-10.46 16.51-13.73 25.66-2.85 8-4.73 16.89-5.4 25.53-.16 2.09-.18 9.63-.02 11.09l.09.89.9.11c1.59.18 6.97.25 9.35.11 9.76-.56 19.49-2.62 28.77-6.08l2.21-.82 2.43 1.38c1.34.76 2.48 1.46 2.54 1.55.18.28-.19.48-2.73 1.49-14.33 5.66-30.27 8.31-45.3 7.55-1.42-.07-2.74-.19-2.94-.27-.48-.18-.5-.48-.63-6.51-.16-8.22.44-15.06 2.05-23.17 2.94-14.86 8.86-28.71 17.22-40.32l.89-1.23-.23-1.61c-.38-2.6-.53-4.26-.68-7.44-.21-4.53.2-11.659.69-12.067.47-.392 3.81-.624 9.03-.627 5.13-.003 5.85.043 10.64.664l1.44.187 1.03-.757c1.82-1.336 4.68-3.19 4.91-3.19zm9.41 4.639c.29 0 3.57 1.981 6.09 3.671 2.24 1.51 3.62 2.52 5.88 4.31 1.51 1.19 1.22 1.15 4.07.48 2.46-.57 6.52-1.12 9.25-1.25 2.64-.13 2.91-.11 2.98.23.02.13 0 1.32-.06 2.65-.14 3.52-.44 5.6-1.56 10.8l-.27 1.22 1.06 1.33c1.46 1.84 2.95 3.88 4.24 5.81 1.56 2.34 3.74 5.93 3.74 6.18 0 .28-1.71 3.18-3.26 5.51-1.54 2.34-2.9 4.21-4.57 6.33l-1.34 1.71.46 1.96c.81 3.41 1.27 6.71 1.47 10.44.08 1.57.06 2.11-.09 2.28-.51.62-7.59-.07-12.54-1.21l-2.29-.52-1.3 1.03a91.25 91.25 0 01-6.24 4.54c-2.38 1.58-5.44 3.43-5.67 3.42-.09 0-.3-.08-.47-.17-3.16-1.72-8.61-5.4-11.64-7.84-.65-.53-1.32-.96-1.48-.96-.16 0-.81.13-1.44.29-1.55.4-4.86.99-6.67 1.2-2.24.27-6.11.44-6.41.28-.23-.12-.26-.37-.26-1.89 0-2.97.5-6.86 1.36-10.71.24-1.06.43-2.04.43-2.18 0-.14-.51-.89-1.13-1.67-2.74-3.42-7.85-11.12-7.85-11.81 0-.28 2-3.59 3.66-6.06 1.37-2.04 3.11-4.41 4.73-6.45l.6-.77-.29-1.18c-.85-3.34-1.46-7.53-1.61-11.03-.08-1.79-.06-2.38.09-2.56.51-.61 7.62.08 12.55 1.21l2.29.53.78-.62c1.84-1.47 4.48-3.4 6.51-4.77 2.62-1.76 5.91-3.761 6.2-3.761zm-56.84 16.011c.13 0 .29.25.39.64.1.35.4 1.43.68 2.4.28.98.51 1.83.51 1.89 0 .07-.83.71-1.83 1.44-2.07 1.48-4.84 3.67-6.62 5.22-1.89 1.64-5.86 5.58-6.83 6.79l-.88 1.1.71.91c.97 1.24 4.52 4.8 6.62 6.64 2.25 1.97 5.39 4.45 7.22 5.71.8.55 1.49 1.14 1.54 1.3.1.35-1.06 4.55-1.34 4.83-.15.16-.42.03-1.44-.65-4.46-3-10.02-7.59-14.34-11.81-3.1-3.03-6.3-6.56-6.3-6.95 0-.68 7.1-7.94 11.13-11.38 4.05-3.45 10.22-8.08 10.78-8.08zm113.48 0c.28.01 3.97 2.61 6.71 4.74 4.25 3.29 9.24 7.83 12.45 11.32 2.56 2.79 2.86 3.15 2.86 3.43 0 .37-2.09 2.69-5.44 6.02-4.36 4.34-8.57 7.89-13.71 11.57-2.42 1.73-2.86 2-3.1 1.85-.14-.09-1.18-3.59-1.35-4.54-.06-.35.04-.48.73-.97 5.51-3.92 10.59-8.28 13.82-11.87.82-.91 1.55-1.76 1.62-1.88.17-.31-.47-1.09-3.03-3.71-3.31-3.38-7.33-6.8-11.21-9.53-.99-.7-1.84-1.36-1.89-1.46-.04-.11.15-.99.43-1.95s.58-2.03.68-2.38c.12-.44.25-.64.43-.64zm-110.87 8.92c.29-.02.44.34.76 1.26.59 1.67 2.05 5.28 2.92 7.2.46 1.01.83 1.97.83 2.13 0 .17-.47 1.35-1.03 2.63-.88 1.98-1.39 3.26-2.93 7.34-.12.3-.31.54-.48.56-.16.02-1.03-.53-2.07-1.31-4.11-3.09-10.25-8.65-10.25-9.28 0-.7 7.79-7.57 11.49-10.13.35-.24.58-.39.76-.4zm108.18 0c.25-.04.6.19 1.24.67 4.69 3.44 11.2 9.18 11.2 9.86 0 .62-5.84 5.89-9.95 8.98-2.31 1.73-2.52 1.86-2.73 1.6-.09-.1-.47-1.05-.86-2.12s-1.27-3.26-1.97-4.87c-.7-1.6-1.31-3.12-1.34-3.36-.06-.33.16-.97.81-2.4.8-1.76 2.22-5.28 2.99-7.4.22-.61.36-.92.61-.96zm-91.55 14.72c.15 0 .49.38.83.94 1.13 1.84 3.19 4.86 4.77 6.97l1.61 2.16-.46 2.35c-.84 4.29-.98 5.81-.98 10.5-.01 3.34.03 4.34.18 4.49.15.15 1.18.2 4.57.2 4.76 0 6.2-.14 10.53-1l2.28-.44 2.1 1.57c7.38 5.52 16.05 10.19 24.86 13.38 7.75 2.82 16.03 4.68 24.52 5.51 2.85.28 10.8.38 12.6.16.91-.11 1-.15 1.09-.52.2-.85.27-8.07.09-10.58-.45-6.58-1.52-13.05-3.17-19.15-.68-2.54-2.28-7.47-3.05-9.45-.29-.73-.52-1.41-.52-1.52 0-.24 2.66-4.93 2.87-5.06.25-.16.41.14 1.34 2.43 4.24 10.56 6.85 22.33 7.61 34.4.29 4.66.1 13.95-.3 14.35-.36.36-9.1.61-13.32.38-7.57-.41-14.78-1.5-22.07-3.36-12.37-3.14-23.44-8.16-33.58-15.23l-2.15-1.51-2.71.33c-5.12.62-9.39.76-13.78.47-2.71-.18-4.4-.4-4.65-.6-.46-.39-.86-7.64-.66-12.11.14-2.99.45-6.21.76-8l.16-.89-.64-.9c-2.19-3.15-3.28-4.81-3.28-5.04 0-.14.52-1.38 1.15-2.74.83-1.8 1.22-2.49 1.4-2.49zm79.25 9.76h.03c.28.05.59.86 1.62 4.16a93.354 93.354 0 014.19 25.29c.09 3.35.07 3.69-.16 3.93-.23.22-.56.25-2.61.23-1.29-.02-2.71-.05-3.17-.08-8.4-.47-16.69-1.97-24.24-4.41-2.77-.9-3.44-1.17-3.44-1.39 0-.12.49-.56 1.09-.98l1.08-.77.97.08c.54.05 2.05.18 3.37.31 1.32.12 3.57.26 5.01.31 5.37.19 13.69-.56 14.07-1.27.2-.38.71-4.1.89-6.51.32-4.28.16-10.33-.38-14.63l-.24-1.9.86-1.21c.53-.75.88-1.14 1.06-1.16zm-83.46.12c.4 0 1.66 1.9 1.66 2.49 0 .26-.11 1.37-.25 2.47-.32 2.54-.38 13.38-.08 15.76.27 2.15.64 4.3.8 4.59.28.54 5.29 1.15 10.53 1.28 3.73.09 7.2-.07 10.82-.5l2-.24 1.04.72c1.35.93 1.47 1.08 1.1 1.35-.15.12-1.19.51-2.31.87-8.6 2.8-16.6 4.28-25.52 4.72-3.23.16-4.2.17-5.01.03l-.52-.1.01-4.04c.04-8.37 1.59-17.54 4.5-26.45.78-2.38 1.02-2.95 1.23-2.95zm41.68 35.46c.08 0 1.46.57 3.07 1.26 1.61.69 3.87 1.6 5.02 2.02 2.42.89 2.53.94 2.59 1.24.05.27-2.46 3.64-4.7 6.33-2.05 2.45-5.55 6.06-5.88 6.06-.13 0-.95-.72-1.82-1.61-1.72-1.74-3.4-3.61-4.93-5.49-1.79-2.2-3.89-5.08-3.89-5.34 0-.17.24-.34.71-.51 2.13-.78 5.76-2.24 7.59-3.04 1.14-.51 2.15-.92 2.24-.92zm14.72 5.64c.22.01.92.17 1.67.38.87.24 1.93.53 2.36.65.59.17.79.29.79.5 0 .59-4.77 6.97-8.27 11.07-3.42 4.01-10.5 10.94-11.17 10.94-.14 0-.96-.62-1.82-1.38-4.83-4.29-9.72-9.64-13.98-15.3-2.4-3.21-3.7-5.13-3.64-5.41.07-.37 4.68-1.66 5-1.39.12.1.61.73 1.07 1.4 1.21 1.71 3.14 4.21 4.82 6.22 2.41 2.89 8.06 8.53 8.55 8.53.24 0 2.31-1.86 4.17-3.74 3.05-3.08 6.05-6.65 8.93-10.64.7-.97 1.35-1.79 1.45-1.82.01-.01.03-.01.07-.01z" fill="#b99750"/></svg>