<svg xmlns="http://www.w3.org/2000/svg" version="1.1" xmlns:xlink="http://www.w3.org/1999/xlink" xmlns:svgjs="http://svgjs.dev/svgjs" width="1440" height="560" preserveAspectRatio="none" viewBox="0 0 1440 560">
    <g mask="url(&quot;#SvgjsMask1004&quot;)" fill="none">
        <path d="M69.64 -65.47L134.59 -27.97L134.59 47.03L69.64 84.53L4.69 47.03L4.69 -27.97zM264.5 497.03L329.45 534.53L329.45 609.53L264.5 647.03L199.55 609.53L199.55 534.53zM329.45 -65.47L394.41 -27.97L394.41 47.03L329.45 84.53L264.5 47.03L264.5 -27.97zM394.41 47.03L459.36 84.53L459.36 159.53L394.41 197.03L329.45 159.53L329.45 84.53zM394.41 272.03L459.36 309.53L459.36 384.53L394.41 422.03L329.45 384.53L329.45 309.53zM524.32 47.03L589.27 84.53L589.27 159.53L524.32 197.03L459.36 159.53L459.36 84.53zM524.32 272.03L589.27 309.53L589.27 384.53L524.32 422.03L459.36 384.53L459.36 309.53zM459.36 384.53L524.32 422.03L524.32 497.03L459.36 534.53L394.41 497.03L394.41 422.03zM654.22 497.03L719.18 534.53L719.18 609.53L654.22 647.03L589.27 609.53L589.27 534.53zM1238.81 384.53L1303.76 422.03L1303.76 497.03L1238.81 534.53L1173.85 497.03L1173.85 422.03zM1563.58 497.03L1628.53 534.53L1628.53 609.53L1563.58 647.03L1498.62 609.53L1498.62 534.53z" stroke="rgba(0, 0, 0, 0)" stroke-width="2"></path>
        <path d="M62.14 -65.47 a7.5 7.5 0 1 0 15 0 a7.5 7.5 0 1 0 -15 0zM127.09 -27.97 a7.5 7.5 0 1 0 15 0 a7.5 7.5 0 1 0 -15 0zM127.09 47.03 a7.5 7.5 0 1 0 15 0 a7.5 7.5 0 1 0 -15 0zM62.14 84.53 a7.5 7.5 0 1 0 15 0 a7.5 7.5 0 1 0 -15 0zM-2.81 47.03 a7.5 7.5 0 1 0 15 0 a7.5 7.5 0 1 0 -15 0zM-2.81 -27.97 a7.5 7.5 0 1 0 15 0 a7.5 7.5 0 1 0 -15 0zM257 497.03 a7.5 7.5 0 1 0 15 0 a7.5 7.5 0 1 0 -15 0zM321.95 534.53 a7.5 7.5 0 1 0 15 0 a7.5 7.5 0 1 0 -15 0zM321.95 609.53 a7.5 7.5 0 1 0 15 0 a7.5 7.5 0 1 0 -15 0zM257 647.03 a7.5 7.5 0 1 0 15 0 a7.5 7.5 0 1 0 -15 0zM192.05 609.53 a7.5 7.5 0 1 0 15 0 a7.5 7.5 0 1 0 -15 0zM192.05 534.53 a7.5 7.5 0 1 0 15 0 a7.5 7.5 0 1 0 -15 0zM321.95 -65.47 a7.5 7.5 0 1 0 15 0 a7.5 7.5 0 1 0 -15 0zM386.91 -27.97 a7.5 7.5 0 1 0 15 0 a7.5 7.5 0 1 0 -15 0zM386.91 47.03 a7.5 7.5 0 1 0 15 0 a7.5 7.5 0 1 0 -15 0zM321.95 84.53 a7.5 7.5 0 1 0 15 0 a7.5 7.5 0 1 0 -15 0zM257 47.03 a7.5 7.5 0 1 0 15 0 a7.5 7.5 0 1 0 -15 0zM257 -27.97 a7.5 7.5 0 1 0 15 0 a7.5 7.5 0 1 0 -15 0zM451.86 84.53 a7.5 7.5 0 1 0 15 0 a7.5 7.5 0 1 0 -15 0zM451.86 159.53 a7.5 7.5 0 1 0 15 0 a7.5 7.5 0 1 0 -15 0zM386.91 197.03 a7.5 7.5 0 1 0 15 0 a7.5 7.5 0 1 0 -15 0zM321.95 159.53 a7.5 7.5 0 1 0 15 0 a7.5 7.5 0 1 0 -15 0zM386.91 272.03 a7.5 7.5 0 1 0 15 0 a7.5 7.5 0 1 0 -15 0zM451.86 309.53 a7.5 7.5 0 1 0 15 0 a7.5 7.5 0 1 0 -15 0zM451.86 384.53 a7.5 7.5 0 1 0 15 0 a7.5 7.5 0 1 0 -15 0zM386.91 422.03 a7.5 7.5 0 1 0 15 0 a7.5 7.5 0 1 0 -15 0zM321.95 384.53 a7.5 7.5 0 1 0 15 0 a7.5 7.5 0 1 0 -15 0zM321.95 309.53 a7.5 7.5 0 1 0 15 0 a7.5 7.5 0 1 0 -15 0zM516.82 47.03 a7.5 7.5 0 1 0 15 0 a7.5 7.5 0 1 0 -15 0zM581.77 84.53 a7.5 7.5 0 1 0 15 0 a7.5 7.5 0 1 0 -15 0zM581.77 159.53 a7.5 7.5 0 1 0 15 0 a7.5 7.5 0 1 0 -15 0zM516.82 197.03 a7.5 7.5 0 1 0 15 0 a7.5 7.5 0 1 0 -15 0zM516.82 272.03 a7.5 7.5 0 1 0 15 0 a7.5 7.5 0 1 0 -15 0zM581.77 309.53 a7.5 7.5 0 1 0 15 0 a7.5 7.5 0 1 0 -15 0zM581.77 384.53 a7.5 7.5 0 1 0 15 0 a7.5 7.5 0 1 0 -15 0zM516.82 422.03 a7.5 7.5 0 1 0 15 0 a7.5 7.5 0 1 0 -15 0zM516.82 497.03 a7.5 7.5 0 1 0 15 0 a7.5 7.5 0 1 0 -15 0zM451.86 534.53 a7.5 7.5 0 1 0 15 0 a7.5 7.5 0 1 0 -15 0zM386.91 497.03 a7.5 7.5 0 1 0 15 0 a7.5 7.5 0 1 0 -15 0zM646.72 497.03 a7.5 7.5 0 1 0 15 0 a7.5 7.5 0 1 0 -15 0zM711.68 534.53 a7.5 7.5 0 1 0 15 0 a7.5 7.5 0 1 0 -15 0zM711.68 609.53 a7.5 7.5 0 1 0 15 0 a7.5 7.5 0 1 0 -15 0zM646.72 647.03 a7.5 7.5 0 1 0 15 0 a7.5 7.5 0 1 0 -15 0zM581.77 609.53 a7.5 7.5 0 1 0 15 0 a7.5 7.5 0 1 0 -15 0zM581.77 534.53 a7.5 7.5 0 1 0 15 0 a7.5 7.5 0 1 0 -15 0zM1231.31 384.53 a7.5 7.5 0 1 0 15 0 a7.5 7.5 0 1 0 -15 0zM1296.26 422.03 a7.5 7.5 0 1 0 15 0 a7.5 7.5 0 1 0 -15 0zM1296.26 497.03 a7.5 7.5 0 1 0 15 0 a7.5 7.5 0 1 0 -15 0zM1231.31 534.53 a7.5 7.5 0 1 0 15 0 a7.5 7.5 0 1 0 -15 0zM1166.35 497.03 a7.5 7.5 0 1 0 15 0 a7.5 7.5 0 1 0 -15 0zM1166.35 422.03 a7.5 7.5 0 1 0 15 0 a7.5 7.5 0 1 0 -15 0zM1556.08 497.03 a7.5 7.5 0 1 0 15 0 a7.5 7.5 0 1 0 -15 0zM1621.03 534.53 a7.5 7.5 0 1 0 15 0 a7.5 7.5 0 1 0 -15 0zM1621.03 609.53 a7.5 7.5 0 1 0 15 0 a7.5 7.5 0 1 0 -15 0zM1556.08 647.03 a7.5 7.5 0 1 0 15 0 a7.5 7.5 0 1 0 -15 0zM1491.12 609.53 a7.5 7.5 0 1 0 15 0 a7.5 7.5 0 1 0 -15 0zM1491.12 534.53 a7.5 7.5 0 1 0 15 0 a7.5 7.5 0 1 0 -15 0z" fill="rgba(0, 0, 0, 0)"></path>
        <path d="M23.49 -26.01L66.79 -1.01L66.79 48.99L23.49 73.99L-19.81 48.99L-19.81 -1.01zM23.49 423.99L66.79 448.99L66.79 498.99L23.49 523.99L-19.81 498.99L-19.81 448.99zM66.79 498.99L110.09 523.99L110.09 573.99L66.79 598.99L23.49 573.99L23.49 523.99zM110.09 123.99L153.4 148.99L153.4 198.99L110.09 223.99L66.79 198.99L66.79 148.99zM110.09 273.99L153.4 298.99L153.4 348.99L110.09 373.99L66.79 348.99L66.79 298.99zM110.09 423.99L153.4 448.99L153.4 498.99L110.09 523.99L66.79 498.99L66.79 448.99zM196.7 -26.01L240 -1.01L240 48.99L196.7 73.99L153.4 48.99L153.4 -1.01zM240 48.99L283.31 73.99L283.31 123.99L240 148.99L196.7 123.99L196.7 73.99zM196.7 123.99L240 148.99L240 198.99L196.7 223.99L153.4 198.99L153.4 148.99zM283.31 123.99L326.61 148.99L326.61 198.99L283.31 223.99L240 198.99L240 148.99zM283.31 423.99L326.61 448.99L326.61 498.99L283.31 523.99L240 498.99L240 448.99zM326.61 498.99L369.91 523.99L369.91 573.99L326.61 598.99L283.31 573.99L283.31 523.99zM413.21 48.99L456.52 73.99L456.52 123.99L413.21 148.99L369.91 123.99L369.91 73.99zM369.91 123.99L413.21 148.99L413.21 198.99L369.91 223.99L326.61 198.99L326.61 148.99zM413.21 198.99L456.52 223.99L456.52 273.99L413.21 298.99L369.91 273.99L369.91 223.99zM413.21 348.99L456.52 373.99L456.52 423.99L413.21 448.99L369.91 423.99L369.91 373.99zM456.52 -26.01L499.82 -1.01L499.82 48.99L456.52 73.99L413.21 48.99L413.21 -1.01zM456.52 273.99L499.82 298.99L499.82 348.99L456.52 373.99L413.21 348.99L413.21 298.99zM543.12 -26.01L586.42 -1.01L586.42 48.99L543.12 73.99L499.82 48.99L499.82 -1.01zM586.42 48.99L629.73 73.99L629.73 123.99L586.42 148.99L543.12 123.99L543.12 73.99zM586.42 198.99L629.73 223.99L629.73 273.99L586.42 298.99L543.12 273.99L543.12 223.99zM543.12 273.99L586.42 298.99L586.42 348.99L543.12 373.99L499.82 348.99L499.82 298.99zM586.42 348.99L629.73 373.99L629.73 423.99L586.42 448.99L543.12 423.99L543.12 373.99zM629.73 -26.01L673.03 -1.01L673.03 48.99L629.73 73.99L586.42 48.99L586.42 -1.01zM673.03 48.99L716.33 73.99L716.33 123.99L673.03 148.99L629.73 123.99L629.73 73.99zM629.73 123.99L673.03 148.99L673.03 198.99L629.73 223.99L586.42 198.99L586.42 148.99zM629.73 423.99L673.03 448.99L673.03 498.99L629.73 523.99L586.42 498.99L586.42 448.99zM673.03 498.99L716.33 523.99L716.33 573.99L673.03 598.99L629.73 573.99L629.73 523.99zM716.33 -26.01L759.63 -1.01L759.63 48.99L716.33 73.99L673.03 48.99L673.03 -1.01zM759.63 198.99L802.94 223.99L802.94 273.99L759.63 298.99L716.33 273.99L716.33 223.99zM716.33 423.99L759.63 448.99L759.63 498.99L716.33 523.99L673.03 498.99L673.03 448.99zM759.63 498.99L802.94 523.99L802.94 573.99L759.63 598.99L716.33 573.99L716.33 523.99zM802.94 -26.01L846.24 -1.01L846.24 48.99L802.94 73.99L759.63 48.99L759.63 -1.01zM846.24 48.99L889.54 73.99L889.54 123.99L846.24 148.99L802.94 123.99L802.94 73.99zM802.94 123.99L846.24 148.99L846.24 198.99L802.94 223.99L759.63 198.99L759.63 148.99zM802.94 273.99L846.24 298.99L846.24 348.99L802.94 373.99L759.63 348.99L759.63 298.99zM846.24 348.99L889.54 373.99L889.54 423.99L846.24 448.99L802.94 423.99L802.94 373.99zM802.94 423.99L846.24 448.99L846.24 498.99L802.94 523.99L759.63 498.99L759.63 448.99zM889.54 -26.01L932.84 -1.01L932.84 48.99L889.54 73.99L846.24 48.99L846.24 -1.01zM889.54 273.99L932.84 298.99L932.84 348.99L889.54 373.99L846.24 348.99L846.24 298.99zM932.84 348.99L976.15 373.99L976.15 423.99L932.84 448.99L889.54 423.99L889.54 373.99zM1019.45 48.99L1062.75 73.99L1062.75 123.99L1019.45 148.99L976.15 123.99L976.15 73.99zM976.15 123.99L1019.45 148.99L1019.45 198.99L976.15 223.99L932.84 198.99L932.84 148.99zM1019.45 198.99L1062.75 223.99L1062.75 273.99L1019.45 298.99L976.15 273.99L976.15 223.99zM976.15 273.99L1019.45 298.99L1019.45 348.99L976.15 373.99L932.84 348.99L932.84 298.99zM976.15 423.99L1019.45 448.99L1019.45 498.99L976.15 523.99L932.84 498.99L932.84 448.99zM1062.75 -26.01L1106.05 -1.01L1106.05 48.99L1062.75 73.99L1019.45 48.99L1019.45 -1.01zM1106.05 198.99L1149.36 223.99L1149.36 273.99L1106.05 298.99L1062.75 273.99L1062.75 223.99zM1062.75 273.99L1106.05 298.99L1106.05 348.99L1062.75 373.99L1019.45 348.99L1019.45 298.99zM1192.66 48.99L1235.96 73.99L1235.96 123.99L1192.66 148.99L1149.36 123.99L1149.36 73.99zM1192.66 348.99L1235.96 373.99L1235.96 423.99L1192.66 448.99L1149.36 423.99L1149.36 373.99zM1235.96 123.99L1279.26 148.99L1279.26 198.99L1235.96 223.99L1192.66 198.99L1192.66 148.99zM1279.26 198.99L1322.57 223.99L1322.57 273.99L1279.26 298.99L1235.96 273.99L1235.96 223.99zM1235.96 273.99L1279.26 298.99L1279.26 348.99L1235.96 373.99L1192.66 348.99L1192.66 298.99zM1279.26 498.99L1322.57 523.99L1322.57 573.99L1279.26 598.99L1235.96 573.99L1235.96 523.99zM1322.57 -26.01L1365.87 -1.01L1365.87 48.99L1322.57 73.99L1279.26 48.99L1279.26 -1.01zM1365.87 48.99L1409.17 73.99L1409.17 123.99L1365.87 148.99L1322.57 123.99L1322.57 73.99zM1322.57 273.99L1365.87 298.99L1365.87 348.99L1322.57 373.99L1279.26 348.99L1279.26 298.99zM1322.57 423.99L1365.87 448.99L1365.87 498.99L1322.57 523.99L1279.26 498.99L1279.26 448.99zM1409.17 123.99L1452.47 148.99L1452.47 198.99L1409.17 223.99L1365.87 198.99L1365.87 148.99zM1452.47 498.99L1495.78 523.99L1495.78 573.99L1452.47 598.99L1409.17 573.99L1409.17 523.99z" stroke="rgba(43, 43, 43, 1)" stroke-width="2"></path>
    </g>
    <defs>
        <mask id="SvgjsMask1004">
            <rect width="1440" height="560" fill="#ffffff"></rect>
        </mask>
    </defs>
</svg>