<?xml version="1.0" encoding="UTF-8" standalone="no"?>
<svg
   xmlnsDc="http://purl.org/dc/elements/1.1/"
   xmlnsCc="http://creativecommons.org/ns#"
   xmlnsRdf="http://www.w3.org/1999/02/22-rdf-syntax-ns#"
   xmlnsSvg="http://www.w3.org/2000/svg"
   xmlns="http://www.w3.org/2000/svg"
   width="554.66669"
   height="320"
   viewBox="0 0 520.00002 299.99999"
   version="1.0"
   id="svg2">
  <metadata
     id="metadata29">
    <rdfRDF>
      <ccWork
         rdfAbout="">
        <dcFormat>image/svg+xml</dcFormat>
        <dcType
           rdfResource="http://purl.org/dc/dcmitype/StillImage" />
        <dcTitle></dcTitle>
      </ccWork>
    </rdfRDF>
  </metadata>
  <defs
     id="defs27" />
  <rect
     style="opacity:1;fill:#df1d25;fill-opacity:1;stroke:none;stroke-width:0.354331;stroke-linecap:round;stroke-linejoin:round;stop-color:#000000"
     id="rect32"
     width="520"
     height="300"
     x="0"
     y="0" />
  <path
     id="path24"
     style="fill:#ffffff;stroke-width:1"
     d="m 378.34001,127.63 c 5.26,-1.46 11.07,-1.32 16.12999,0.84 3.26001,1.51 6.3,4.72 5.94,8.56 -0.49999,3.61 -2.49,6.87 -4.96999,9.47 -1.41,1.57 -3.81,1.46 -5.67,0.92 -2.35001,-2.68 -3.61001,-6.98 -7.62,-7.6 -3.68,0.09 -7.61,1.87 -9.10001,5.42 -1.98,4.55 -1.71999,10.23 1.34001,14.25 3.30999,4.75 7.92999,9.09 8.67999,15.12 0.88001,9.83001 -3.24,20.37 -11.64,25.91001 -6.81,4.54999 -15.27999,7.26 -23.49,5.88999 -5.59,-1.11999 -11.38999,-4.14999 -13.69,-9.65 -2.16,-4.41 0.85,-9.01 2.58,-13.02 1,-2.14 2.79,-5.92 5.72001,-4.06 3.76999,3.72 7.53,7.94001 12.91,9.23001 3.15,1.08 7.65,-0.48 8.33,-4.01001 0.13,-3.87999 -3.19001,-6.54 -5.1,-9.57 -5.09,-6.86 -5.31,-16.22 -2.52,-24.03999 3.67,-10.44001 11.47,-20.02001 22.17,-23.66001 z M 471.22,111.96 c 4.03001,-1.95 9.52001,-2.53 12.98001,0.86 2.4,1.94 2.79999,5.19 4.44,7.64 3.02,2.42 7.50999,2.91 9.66999,6.42 0.59001,2.43 -0.43999,4.81 -1.56999,6.91 -4.73001,8.1 -9.43,16.30001 -12.84,25.07 -0.62001,2.12001 -1.52001,5.25 0.9,6.59001 2.67999,0.51 4.56,-1.73001 6.33999,-3.32001 4.38,-4.13 7.40001,-9.36 10.69001,-14.33 1.21999,-2.08 3.79999,-2.83 6.06,-2.16 1.5,0.99 1.72999,2.85 1.02,4.42001 C 506.05,158.09 500.81001,164.95 495.4,171.43 c -4.89,5.46 -10.45999,10.78 -17.59999,13.06 -3.43001,1.13 -7.49,1.45001 -10.57001,-0.76 -2.76999,-1.89999 -3.24,-5.48 -4.20999,-8.43 -5.30001,4.85001 -9.73,10.98 -16.47001,13.98 -5.16999,2.53 -12.46999,2.25 -16.14999,-2.69 -3.08001,-3.78 -3.21,-8.85 -3,-13.48999 -5.68,8.20999 -11.98,16.20999 -20.04,22.20999 -3.71001,2.84001 -8.81001,4.48 -13.33,2.74 -4.45001,-2.08999 -5.67,-7.54 -5.3,-12.03 0.62,-10.26 5.31,-19.66 9.57,-28.81999 5.04999,-11.12001 12.06,-21.36001 15.72,-33.10001 3.93999,-4.67 12.18999,-6.56 17,-2.08 2.38999,2.06 2.11999,5.7 1.2,8.41 -6.64001,13.17 -14.75,25.58 -20.86001,39.02 -0.91999,1.97001 -1.06999,4.15 -1.24999,6.28 4,-0.28 6.63,-3.79999 9.10999,-6.55 10.94001,-13.74 20.63001,-28.49 32.34001,-41.6 5.76,-6.09 12.05,-11.95 19.65999,-15.62 m 0.76001,16.99 c -9.95,8.97 -16.7,20.86 -22.38,32.84001 -1.52001,3.81 -4.31001,8.17999 -1.86,12.19999 6.06,-1.53 9.79,-6.99 13.51,-11.58 6.78999,-9.33 12.45,-19.52 16.79,-30.21 0.51,-1.93 1.95,-4.73 -0.07,-6.2 -2.39,-0.23 -4.29,1.55 -5.99,2.95 z m -292.58,-33.349995 c 4.29999,-2.040004 10.77999,-1.29 12.85999,3.51 C 195.48001,107.31 188.04001,116.28 179.95,117.46 c -4.37,0.88 -9.27999,-1.77 -10.23999,-6.26 -1.18001,-6.69 3.64999,-13.179998 9.69,-15.599995 z m 253.99,-8.860003 c 4.65,-2.190001 11.46,-0.72 12.99,4.699999 2.41,9.549999 -7.85,19.219999 -17.26001,17.049999 -3.24999,-0.91 -5.82999,-4.04 -5.82,-7.47 -0.36,-6.329998 4.39001,-12.059998 10.09001,-14.279998 z m -94.02,-35.330001 c 2.73,-2.3 5.82,-5.410001 9.69999,-4.780001 2.51001,0.950001 3.12001,3.75 4.26001,5.88 1.14,2.730001 3.27999,4.830001 4.82,7.310001 1.93,3.4 0.75,7.4 -0.26,10.9 -3.4,10.34 -8.08,20.2 -11.65,30.479999 -3.57,11.18 -5.86001,22.73 -8.92001,34.05 5.87,-0.55 12.45,-2.42 17.89001,0.72 1.42,3.93 0.08,9.66 -4.34,11.05 -5.59,2.07 -11.64001,2.42 -17.24001,4.46 -3.25999,16 -5.14999,32.22 -7.03,48.43 -0.32,3.47 -0.29,7.03001 -1.44,10.36001 -1.68,4.93999 -8.36,6.6 -12.66999,4.23 -3.64001,-2.21001 -5.25,-6.48 -5.89001,-10.48001 -0.73,-5.4 -0.34,-10.87999 0.32,-16.27 1.52001,-10.65 3.87,-21.15999 6.36,-31.62 -9.59,2.63001 -19.19,5.25 -28.59999,8.46 -12.83001,24.97 -25,50.43 -33.91,77.1 -1.81001,5.22 -1.89,12.65001 -7.78001,15.08001 -8.92999,1.69 -17.11,-8.50001 -14.11,-17.03001 7.53,-22.58 17.82,-44.13 28.50001,-65.36 C 249.79,177.51001 242.39,181.13 235.27,185.25001 232.9,186.82 229.54,186.79 227.37001,184.88 c -4.2,-3.25999 -3.41001,-9.34999 -2.82,-13.99 2.29999,-5 8.08999,-6.33999 12.64999,-8.49 10.90001,-4.94 22.37001,-8.49 33.66,-12.30999 12.93,-21.88001 26.1,-43.66001 40.71,-64.470009 8.56,-11.94 17.09001,-24.07 27.80001,-34.21 m -43.2,92.049999 c 7.08999,-1.59 14.17999,-3.19 21.33,-4.5 C 322.7,119.21 328.65,99.659998 335.79,80.520001 321.3,100.66 308.4,121.89 296.17001,143.46 Z M 135.54,50.670001 c 2.46,-1.95 5.17,-4.51 8.56,-4.100001 2.89,0.910001 3.59,4.160001 4.88,6.51 1.85,3.970001 6.32,7.000001 5.57,11.880001 -1.3,8.83 -5.77,16.77 -8.69,25.13 C 139.57,104.53 136.61,120.06 132.73,135.25 c 11.68,-1.9 23.4,-3.75 35.19,-4.82 5.51001,-0.75 10.56,5.25 7.95,10.46 -6.15,12.14001 -12.93999,24.03 -18.06999,36.67 -1.01001,2.38001 -1.43001,4.94 -1.60001,7.51001 4.24001,-0.06 6.53,-4.13001 9.23,-6.77001 11.07,-12.72 20.33001,-27.15999 26.81001,-42.75 1.47,-2.81 0.63999,-6.92 3.78,-8.66 4.2,-2.57 10.15999,-4.8 14.61999,-1.58 3.42,2.62 1.29,7.1 0.57,10.5 3.47001,-4.37 7.23,-8.63 11.84001,-11.84 5.50999,-4.12 13.81999,-0.46 16.50999,5.31 1.42,3.12 -0.90999,6.18 -3.24999,8.04 -5.15001,4.29 -12.26001,4.22 -18.20001,6.82 -6.47,2.3 -10.83,7.92 -14.7,13.31 -7.77,10.76001 -13.88,23.22 -14.87,36.63 -0.16999,1.65 -0.06,3.76 -1.72,4.73001 -3.21,2.11999 -6.81,4.21999 -10.79,4.14 -2.95,-0.05 -5.29,-2.61 -5.71999,-5.41001 -1.18001,-4 0.1,-8.14 0.63999,-12.10999 -4.44999,7.44 -10.02,14.34999 -16.74999,19.84999 -3.62001,3.17 -8.75001,4.38 -13.39001,3.01001 -3.36,-1.75001 -5.02,-5.61 -5.29,-9.23001 -0.63,-7.43 1.66,-14.69 4.02,-21.63 4.07,-10.64 8.82,-21.02 13.84,-31.25 -8.17,1.62 -16.31,3.41 -24.38,5.47001 -3.4,15.9 -5.15,32.07999 -6.95,48.22999 -0.56,4.2 -0.09,8.91 -2.68,12.54 -3.49,4.30001 -11.16,4.24001 -14.35,-0.42 -3.55,-5.2 -3.76,-11.88 -3.38,-17.95999 1.08,-12.69 4,-25.13001 6.88,-37.51001 -9.520002,2.68001 -19.009999,5.48 -28.489999,8.32001 -7.04,13.02999 -13.33,26.46 -19.41,39.96999 -6.09,14.33001 -12.62,28.6 -16.3,43.8 -1.060001,3.59001 -3.06,8.04001 -7.330001,8.41 -8.4,0.19001 -15.28,-8.98 -12.77,-17.02999 3.23,-10.79001 7.81,-21.11001 12.270001,-31.44 4.95,-11.52 10.499999,-22.76001 16.24,-33.9 C 45.110001,177.77 37.68,181.31 30.460001,185.26 27.27,187.33 22.72,186.58 20.42,183.55 c -3.52,-5.51 -2.83,-14.49 3.74,-17.43999 12.62,-5.79 25.690001,-10.65 39.020001,-14.57001 1.19,-0.45999 2.76,-0.62 3.42,-1.88 15.26,-26.31 31.330001,-52.229995 49.489999,-76.649999 6.03,-7.81 12.04,-15.77 19.45,-22.34 M 91.420002,143.65 C 98.690005,141.89 106.19,140.88 113.27,138.53 117.77,118.87 124.24,99.689998 131.07,80.740001 116.51,100.82 103.69,122.1 91.420002,143.65 Z" />
</svg>
