<svg xmlns="http://www.w3.org/2000/svg" xml:space="preserve" width="2309" height="675" fill-rule="evenodd" clip-rule="evenodd" image-rendering="optimizeQuality" shape-rendering="geometricPrecision" text-rendering="geometricPrecision" viewBox="0 0 2303.63 673.748"><path fill="#d9000d" d="M992.725 0H877.326L487.668 303.062c-78.3393 55.366-147.262 108.955-197.815 121.807-68.7727 17.4872-158.136 27.3967-289.852 24.6736 39.631 8.93859 74.1752 13.0897 96.7479 15.933 108.014 13.5941 185.527 50.132 250.996 97.9085 43.1282 31.4736 69.6022 58.6864 100.245 76.9348 33.6087 20.0075 80.4273 33.4131 120.447 33.4131 40.0222 0 80.042-5.05137 112.287-13.5964-34.9672 1.55064-80.4249-1.16887-113.453-8.16327-33.0266-6.99204-103.209-31.8813-111.122-72.2675-7.57647-38.6612 89.2598-68.2825 127.441-73.8229 99.0798-14.3788 183.391-10.4892 214.087-8.15973-40.7951-15.9294-52.0656-35.3573-52.0656-52.0656 0-16.7059 11.6569-32.6354 18.6525-44.6812L992.7258-.0006z"/><path fill="#ef7000" d="m581.343 300.469-5.10322 2.00429c10.3714 50.6445 20.8818 88.237 41.984 128.555 7.88283 15.0669 20.1749 40.8104 32.5706 67.4636 3.49248-.26512 6.94137-.51138 10.3561-.73644-9.42169-28.9885-18.3933-57.567-23.0311-74.5428-11.9975-43.8999-29.8923-78.5879-56.7764-122.744zM334.78 540.926c-.4831.608-.86723 1.10289-1.11939 1.44106.26747-.32875.65042-.8201 1.11939-1.44106zm193.642-244.889-4.33025-3.36405c-38.2453 34.7834-65.1918 63.0179-89.0795 101.753-22.4938 36.4766-89.0406 131.713-100.232 146.499 11.5532-14.5013 87.3462-102.559 117.114-133.385 31.6173-32.7391 52.3-65.8364 76.5283-111.504zm64.6298-2.96107-4.41863 3.24268c22.9792 46.3072 42.7558 79.9583 73.4717 113.543 16.3631 17.8842 46.9411 54.4787 72.4419 85.5729 2.37899.0059 4.71438.0212 7.00146.04242-22.4961-34.3204-49.6241-76.5624-62.2119-98.2644-22.8272-39.3753-48.9973-68.3273-86.2846-104.137zm19.1285-35.8404-.88137 5.40958c48.8394 16.9534 86.5261 27.1162 131.967 29.5671 17.8242.96267 48.2608 3.76349 79.0357 6.90131l4.93826-8.67229c-31.3239-7.0321-62.6797-14.3977-80.5321-19.3253-43.8717-12.1082-82.8333-14.4424-134.528-13.8804zm-9.69741 25.6952-3.44299 4.2678c34.0623 38.8886 61.7877 66.3607 100.071 90.9672 13.1416 8.44606 33.9798 22.8944 55.8644 38.3985 1.87939-3.3664 3.84715-6.58434 5.70533-9.62554-19.3265-17.7216-37.3345-34.5702-48.1454-45.4046-32.1393-32.2253-64.8454-53.5231-110.052-78.6032zm142.928-60.5328c-45.5119-.48193-83.7713 7.22887-133.604 20.9938l.5326 5.45671c51.5483 3.89546 90.5795 4.08045 135.139-5.17745 25.1508-5.22105 76.5071-13.4444 117.597-19.634l2.97166-5.21634c-42.0382 1.90767-96.233 3.8554-122.636 3.57732zm-136.408 48.3174-2.23406 5.00424c42.8736 28.879 76.7038 48.3468 120.011 62.3392 14.2916 4.62247 36.8843 12.781 60.937 21.7526l5.61814-9.85884c-23.0959-12.1188-44.6694-23.7274-57.8333-31.4064-39.3128-22.9274-76.3798-35.1522-126.499-47.8308zm-60.1334 33.7595c-16.0367 49.1446-25.4914 87.014-27.0938 132.495-.68813 19.5256-3.29453 54.1948-6.15544 87.8824 3.11778-1.24075 6.26502-2.42966 9.4158-3.56789 6.47123-31.5796 13.283-63.2535 17.8972-81.2662 11.2858-44.092 12.8918-83.089 11.3612-134.766l-5.4249-.77768zm300.423-274.969c.62332-.46307 1.11939-.8413 1.45049-1.10525-.34288.24744-.83895.62803-1.45049 1.10525zm-331.187 257.293-3.32516-4.35971c-.6139.3205-1.21365.6351-1.82401.95324l-25.2875 19.6705c-38.7932 27.4179-75.271 54.3904-108.359 76.2042-39.0618 34.7222-99.2494 85.501-111.048 94.7365 14.8784-11.0595 110.677-76.8016 147.338-98.9843 38.9369-23.5637 67.4-50.271 102.505-88.2205zm-249.843 187.205c-.6245.4666-1.12174.84602-1.44931 1.11114.34053-.2498.8366-.6304 1.44931-1.11114zm299.87-169.383-5.4461.63275c-2.93161 51.6155-2.38488 90.6431 7.70019 135.02 3.42414 15.0705 8.11024 39.5968 12.8176 65.6667.12844-.01886.26276-.04007.38648-.05774a956.02106 956.02106 0 0 1 10.6082-1.47523c-1.39629-26.3645-2.45676-51.2019-2.58166-66.5999-.36527-45.5119-8.78894-83.6205-23.4847-133.187zm-151.927 283.986c-.31343.70816-.55734 1.2867-.7117 1.67908.17322-.38413.41713-.9615.7117-1.67908zm119.508-288.419c-28.0742 43.4062-46.9023 77.5982-60.0863 121.155-12.4134 41.0166-52.3872 150.105-59.4217 167.263 7.45982-16.977 58.2033-121.49 79.0958-158.907 22.1921-39.737 33.7182-77.0243 45.46-127.371l-5.04784-2.14097zm72.1921-71.2495 1.90649 5.13857c50.8307-9.42169 88.6082-19.2252 129.322-39.572 38.3313-19.1568 145.062-65.054 162.364-71.729-17.4636 6.24264-128.27 41.1686-169.81 51.6944-44.1191 11.1726-79.1323 28.4159-123.783 54.4681zm293.592-106.163c.72937-.2604 1.31616-.47721 1.70854-.6351-.39709.13668-.98152.35584-1.70854.6351zm-186.576 22.7141c31.0718-29.507 119.766-104.548 134.37-115.982-9.06584 6.74106-48.1454 33.7618-85.5953 58.8714l-162.248 126.19c-.67163.71994-1.32677 1.41396-2.00075 2.14569l3.32752 4.35853c45.8701-23.8453 79.1429-44.2452 112.147-75.5833z"/><path fill="#d9000d" d="M1779.77504 373.77418c-15.21899 0-17.00746 7.21706-17.00746 7.21706l-13.42817 20.63743h-13.43402l-6.70824 11.3461h13.42622l-55.50428 89.75509h59.5378l52.36559-89.24042h118.17298l-8.05925 16.51034h-75.65043c-15.43919 0-19.68608 9.80404-19.68608 9.80404l-8.06119 13.9214s-6.03794 11.35195 8.05924 11.35195h61.32355c10.51869 0 8.0534 7.73758 8.0534 7.73758l-6.49185 13.66796s-3.57843 5.93233-8.72402 5.93233h-18.8049c-8.056 0-.89287-12.37739-.89287-12.37739h-58.85938l-4.4741 7.73563s-6.04582 15.4732 11.86077 15.4732h113.24659c14.76998 0 19.69387-10.31482 19.69387-10.31482l14.76748-26.8232s7.38886-12.9018-8.72792-12.9018h-62.22032c-10.29489 0-6.48963-12.89402 1.12096-12.89402h74.75367c8.9504 0 11.19014-5.15838 11.19014-5.15838l12.08497-21.66482h16.56492l6.71214-10.31482h-13.87656s5.82-10.5692 9.6247-17.27843c3.80119-6.7081-.44931-12.12201-9.6247-12.12201zm-109.36708.51077L1662.5612 386.83h58.98025l5.56582-12.54505h-56.69932zm149.87969 10.31872h100.0387c9.8459 0 6.49185 7.74147 6.49185 7.74147l-4.25381 9.54281h-116.37554l5.59312-10.83338s2.01678-6.4509 8.50568-6.4509zM883.76428 401.4805l-6.72383 9.49017h30.30111l-42.49135 66.54627s-13.06814 21.66676 14.15534 21.66676h75.81224c11.97034 0 8.05534 10.83144 8.05534 10.83144h62.80712l2.22438-9.82354s3.61023-13.39113-11.31296-13.39113h-85.3609c-17.22321 0-7.29505-12.3774-7.29505-12.3774l40.28647-61.9006h32.22527l-26.8544 41.7798s-2.5706 4.6437-10.74565 4.6437h-6.73748l-6.68874 10.8334h56.39715c17.46948 0 23.58313-11.52937 23.58313-11.52937l28.7883-47.27933h27.36907l6.20331-9.49017zm683.1173.51661-7.33987 11.9602h82.51854c5.3153 0 4.80747 2.62988 4.80747 2.62988l-5.82316 10.50002h-80.23762c-12.14939 0-16.45575 8.45694-16.45575 8.45694l-10.12377 18.67038s-3.53617 9.91712 6.58542 9.91712h66.5716c10.6294 0 6.83496 9.6247 6.83496 9.6247l-7.33987 11.9641s-4.05148 5.83485-9.11588 5.83485h-17.46754c-7.34189 0-4.30255-8.17231-4.30255-8.17231l1.52256-6.99872h-54.17082s-1.51877 3.20647-6.57957 12.83553c-4.5565 12.83288 9.36541 14.2918 9.36541 14.2918l-6.8369 12.83552h37.96655l6.07465-12.547h78.21599c8.85839 0 13.92334-7.87014 13.92334-7.87014l20.24753-32.6717s8.8597-11.37925-5.56388-11.37925h-67.83878c-10.62829 0-3.54155-13.126 1.01374-13.126h77.95865c8.6063 0 12.15125-5.54243 12.15125-5.54243l11.39289-19.83424h12.1493l6.833-11.37925H1566.8816Zm-456.38043.58096c-10.6318 0-13.9253 8.75521-13.9253 8.75521l-9.86643 14.8747h57.96455l4.42537-6.56007s3.92477-7.73563 9.74557-7.73563h13.41647c13.67069 0 7.59331 10.50197 7.59331 10.50197l-14.17678 20.16176h-43.02746l-6.32809 11.92705h28.85848c12.6514 0 9.72217 6.71019 9.72217 6.71019l-14.78697 23.62602s-2.28107 4.38053-9.36736 4.38053h-12.9096c-11.8973 0-6.83301-11.96215-6.83301-11.96215h-55.68754l-2.27896 7.87404s-5.81946 14.29765 6.33003 14.29765h108.33384c18.47919 0 25.3143-10.50002 25.3143-10.50002s9.8726-14.58738 16.4499-25.38057c6.58429-10.78965-1.0079-15.17103-1.0079-15.17103s1.30862113-.001 5.61171113 0c4.2997 0 7.84285-6.41386 7.84285-6.41386l17.67703887-26.84075s7.34078-12.54504-8.6051-12.54504h-120.4851zm152.3809.29632-8.10214 11.66972h21.51666l-19.74456 28.58555h-23.28485l-6.0766 11.08487h23.79367l-27.33787 45.50334h58.22189l50.62468-86.04908h22.77798l7.84675-10.7944zm122.00765 0-6.33588 10.7944h21.5225l-19.99994 31.50395h-31.63848l-5.31824 8.16647s13.92324 1.16323 7.09034 12.24872c-5.2223 8.46608-4.55774 8.16906-8.85854 13.42427-4.3067 5.2434-6.8342 21.58294 5.56388 21.58294h76.1924l6.95778-9.77285h-25.43321c-14.17499 0-6.58152-10.64818-6.58152-10.64818s4.04994-4.95716 8.85854-11.37535c4.8087-6.4194.25343-13.70695.25343-13.70695h15.94498c7.0863 0 12.65422-9.91907 12.65422-9.91907l18.47738-31.79638h22.78579l6.57567-10.50197zm631.2313.30022-7.42955 10.70082h34.82396c11.40359 0 2.15864 15.98592-6.47235 15.98592h-54.54902l-14.17678 25.56577s-13.86638 20.59845 3.7021 20.59845h118.59502974c10.7897 0 8.32243 7.46074 8.32243 7.46074l-15.00194201 26.28124h57.18684961l48.47379266-88.79009s3.69646-7.10203 9.55256-7.10203h19.71921c7.3998 0 1.54986 9.23674 1.54986 9.23674l-48.08253 86.65538h57.6312l48.79019-88.79008s3.69646-7.10204 9.55256-7.10204h9.29912l5.8797-10.70082zm94.27209 12.12201h21.26517c6.1649 0 1.5401 8.16841 1.5401 8.16841l-23.1133 40.49117h-79.51435c-11.40478 0-4.93029-11.01274-4.93029-11.01274l6.16238-11.3656h54.55292c5.5474 0 8.31658-6.03956 8.31658-6.03956l9.55646-16.68969s1.23313-3.55199 6.16433-3.55199z"/><path fill="#d9000d" d="M2148.67 640.902h-25.4501l44.1521-52.6653-18.702 52.6653zm-51.7969-65.9884-83.6723 98.8335h82.4716l11.8042-14.0713h34.5289l-5.00306 14.0713h75.9026l27.7348-98.8335h-143.767zm-128.184 0-51.5306 98.8335h82.4728l50.7258-98.8335h-81.668zm-113.378 34.2343-19.5881 33.9433c-2.0526 4.04511-4.86992 5.62992-12.6137 5.62992h-18.5358l27.0738-49.3743 17.9172-.033c8.9975 0 7.07687 6.55018 5.74657 9.8341zm62.0587-34.2556c-27.5298 0-72.2263.0212-72.2263.0212h-81.6751l-51.5188 98.8335h162.464c20.645 0 24.9658-8.33057 24.9658-8.33057l36.4472-69.4031c5.13386-9.63732.95442-21.121-18.4569-21.121zm-244.314.0212-15.4923 29.725-21.59-29.725h-83.0419l-51.5247 98.8335h63.6989l19.8579-38.6812 25.2062 38.6812h75.0636l50.7305-98.8335h-62.9083zm-224.299 0-51.5235 98.8335h82.4693l50.727-98.8335h-81.6727zm-195.336 34.2343-4.63543 10.6389c-2.0526 4.04512-4.86638 5.62993-12.6114 5.62993h-18.5335l12.1141-26.0699 17.9184-.033c8.99515 0 7.07687 6.55018 5.74775 9.8341zm62.0599-34.2556c-27.5333 0-72.2298.02122-72.2298.02122h-81.6751l-51.5212 98.8335h82.4681l16.7495-33.0007c5.31531 0 7.50695 4.68964 7.50695 4.68964l15.9518 27.6842h75.0848l-18.9318-34.2532c20.6474 0 24.9717-8.33176 24.9717-8.33176l20.0806-34.5218c5.12796-9.63732.94618-21.121-18.4557-21.121zm-254.322.02122-51.5247 98.8335h82.4693l50.727-98.8335h-81.6715zm-128.78 65.9884h-25.4584l44.1615-52.6653-18.7032 52.6653zm-51.8016-65.9884-83.6664 98.8335h82.4681l11.803-14.0713h34.5301l-5.00071 14.0713h75.9002l27.736-98.8335h-143.77z"/></svg>